<svg width="30" height="31" viewBox="0 0 30 31" fill="none" xmlns="http://www.w3.org/2000/svg">
<path d="M26.0516 6.61634C25.4132 5.9776 24.6551 5.4709 23.8208 5.1252C22.9865 4.7795 22.0922 4.60156 21.1891 4.60156C20.286 4.60156 19.3917 4.7795 18.5574 5.1252C17.7231 5.4709 16.9651 5.9776 16.3266 6.61634L15.0016 7.94134L13.6766 6.61634C12.387 5.32673 10.6379 4.60223 8.81411 4.60223C6.99032 4.60223 5.24123 5.32673 3.95161 6.61634C2.662 7.90596 1.9375 9.65505 1.9375 11.4788C1.9375 13.3026 2.662 15.0517 3.95161 16.3413L5.27661 17.6663L15.0016 27.3913L24.7266 17.6663L26.0516 16.3413C26.6904 15.7029 27.1971 14.9449 27.5428 14.1105C27.8885 13.2762 28.0664 12.382 28.0664 11.4788C28.0664 10.5757 27.8885 9.68147 27.5428 8.84715C27.1971 8.01283 26.6904 7.25479 26.0516 6.61634Z" stroke="#214AEE" stroke-width="3" stroke-linecap="round" stroke-linejoin="round"/>
</svg>
