<svg width="306" height="83" viewBox="0 0 306 83" fill="none" xmlns="http://www.w3.org/2000/svg">
<path d="M124.049 0.431885L136.279 21.9432L148.508 0.431885H152.152V32.1049H147.998V8.73426L137.79 26.7658H134.78L124.572 8.73426V32.1049H120.418V0.431885H124.062H124.049Z" fill="#214AEE"/>
<path d="M179.094 24.2801H163.86L160.694 32.1112H156.34L169.397 0.438232H173.79L186.808 32.1112H182.26L179.094 24.2801ZM177.627 20.6002L171.496 5.29312L165.32 20.6002H177.627Z" fill="#214AEE"/>
<path d="M211.9 32.1114L204.696 20.8392C203.901 20.8909 203.314 20.9167 202.913 20.9167H195.199V32.1049H191.045V0.431885H202.919C205.555 0.431885 207.836 0.845062 209.748 1.67788C211.661 2.5107 213.121 3.69215 214.122 5.23513C215.123 6.77811 215.627 8.59223 215.627 10.6711C215.627 12.9113 215.046 14.8352 213.889 16.4427C212.727 18.0502 211.053 19.2381 208.863 19.9999L216.816 32.0984H211.906L211.9 32.1114ZM209.128 15.5195C210.685 14.4026 211.46 12.7822 211.46 10.6775C211.46 8.57287 210.679 6.95242 209.128 5.83553C207.571 4.71865 205.394 4.15698 202.596 4.15698H195.199V17.2045H202.596C205.394 17.2045 207.571 16.6428 209.128 15.526V15.5195Z" fill="#214AEE"/>
<path d="M231.095 17.992L225.396 24.3189V32.1112H221.242V0.438232H225.396V18.7086L241.664 0.438232H246.852L233.795 14.99L247.763 32.1112H242.459L231.101 17.992H231.095Z" fill="#214AEE"/>
<path d="M274.502 0.431885V4.1118H256.141V14.0798H273.119V17.7597H256.141V28.4379H274.857V32.1178H251.98V0.44479H274.495L274.502 0.431885Z" fill="#214AEE"/>
<path d="M293.857 4.15053V32.1114H289.703V4.15053H278.307V0.431885H305.215V4.15053H293.857Z" fill="#214AEE"/>
<path d="M9.73573 26.8496C6.99 28.5669 3.8954 29.5999 0.464844 29.9485V24.9257C4.2055 24.377 7.28718 22.8146 9.70343 20.2193C12.1197 17.6305 13.5991 14.4993 14.1483 10.8388H0.994609V5.99036H14.2129V0.438232H20.0597V5.99036H33.1035V10.8388H20.0597C19.8271 12.5948 19.4136 14.2476 18.8322 15.8034L33.9822 25.2098L31.2364 29.5353L16.5581 20.3033C14.762 22.9567 12.4944 25.1323 9.74219 26.8496H9.73573ZM40.7011 13.4083V1.30977H46.4898V31.0589H40.7011V18.5537H31.1072V13.4083H40.7011Z" fill="#214AEE"/>
<path d="M80.7628 13.2921V7.27515H57.3691V2.54291H86.4933V17.9146H63.2159V24.0478H75.7882C79.18 24.0478 82.2487 23.8541 85.0009 23.4603C87.7531 23.0665 89.9238 22.5242 91.5196 21.8205V26.5527C89.9626 27.2176 87.766 27.7535 84.9428 28.1602C82.113 28.567 78.9474 28.7735 75.4393 28.7735H57.4854V13.2857H80.7628V13.2921ZM100.939 11.8331V18.0889H107.955V22.9955H100.939V31.059H95.1504V1.30981H100.939V6.92006H107.955V11.8266H100.939V11.8331Z" fill="#214AEE"/>
<path d="M101.713 46.6435L91.8604 36.7981C85.9555 30.8974 76.3422 30.8974 70.4372 36.7981L60.5849 46.6435C60.3846 46.8436 60.1908 47.0567 59.997 47.2633L64.2933 51.5565C64.4741 51.337 64.6615 51.1239 64.8682 50.9238L74.7206 41.0784C76.4391 39.3612 78.7197 38.4186 81.1488 38.4186C83.578 38.4186 85.8586 39.3612 87.5771 41.0784L97.4294 50.9238C100.976 54.4681 100.976 60.2269 97.4294 63.7712L87.5771 73.6166C85.8586 75.3338 83.578 76.2764 81.1488 76.2764C78.7197 76.2764 76.4391 75.3338 74.7206 73.6166L64.8682 63.7712C62.4778 61.3825 61.709 57.9867 62.5424 54.9459L57.8909 50.2976C54.8867 56.0111 55.7847 63.2547 60.5849 68.0515L70.4372 77.8969C73.3897 80.8473 77.2725 82.3257 81.1488 82.3257C85.0252 82.3257 88.9079 80.8473 91.8604 77.8969L101.713 68.0515C107.618 62.1507 107.618 52.5443 101.713 46.6435Z" fill="#214AEE"/>
<path d="M63.7827 63.455C63.6858 63.5583 63.5953 63.668 63.4984 63.7713L53.6461 73.6167C51.9276 75.3339 49.647 76.2765 47.2178 76.2765C44.7887 76.2765 42.5081 75.3339 40.7896 73.6167L30.9373 63.7713C27.3904 60.227 27.3904 54.4682 30.9373 50.9239L40.7896 41.0785C42.5081 39.3613 44.7887 38.4187 47.2178 38.4187C49.647 38.4187 51.9276 39.3613 53.6461 41.0785L63.4984 50.9239C66.0116 53.4353 66.7352 57.0571 65.6821 60.2141L70.2562 64.7849C73.5123 59.0132 72.6918 51.5501 67.7753 46.6371L57.923 36.7918C52.018 30.891 42.4047 30.891 36.4998 36.7918L26.6475 46.6371C20.7425 52.5379 20.7425 62.1444 26.6475 68.0452L36.4998 77.8905C39.4523 80.8409 43.3351 82.3193 47.2114 82.3193C51.0877 82.3193 54.9705 80.8409 57.923 77.8905L67.7753 68.0452C67.8787 67.9419 67.9691 67.8386 68.066 67.7353L63.7762 63.4485L63.7827 63.455Z" fill="#214AEE"/>
<path d="M124.379 50.8271L136.415 72.0027L148.451 50.8271H152.037V82.0031H147.947V59.0004L137.901 76.7479H134.942L124.896 59.0004V82.0031H120.807V50.8271H124.392H124.379Z" fill="#214AEE"/>
<path d="M178.558 74.2946H163.563L160.449 82.0031H156.166L169.023 50.8271H173.345L186.162 82.0031H181.685L178.571 74.2946H178.558ZM177.118 70.6728L171.077 55.611L165.004 70.6728H177.118Z" fill="#214AEE"/>
<path d="M194.412 78.3101H211.552V82.0094H190.322V50.8335H194.412V78.3166V78.3101Z" fill="#214AEE"/>
<path d="M220.234 78.3101H237.374V82.0094H216.145V50.8335H220.234V78.3166V78.3101Z" fill="#214AEE"/>
</svg>
