<svg width="50" height="50" viewBox="0 0 50 50" fill="none" xmlns="http://www.w3.org/2000/svg">
<rect x="1.5" y="1.5" width="47" height="47" rx="3.5" fill="#214AEE"/>
<rect x="1.5" y="1.5" width="47" height="47" rx="3.5" stroke="#214AEE" stroke-width="3"/>
<path d="M11.5195 20.9004V19.6016H19.1895V20.9004H16.1133V29.5H14.6094V20.9004H11.5195ZM28.8965 24.5508C28.8965 27.709 26.9961 29.6367 24.4395 29.6367C21.8555 29.6367 19.9688 27.709 19.9688 24.5508C19.9688 21.3789 21.8555 19.4648 24.4395 19.4648C26.9961 19.4648 28.8965 21.3789 28.8965 24.5508ZM27.4062 24.5508C27.4062 22.1445 26.1348 20.8457 24.4395 20.8457C22.7305 20.8457 21.459 22.1445 21.459 24.5508C21.459 26.957 22.7305 28.2559 24.4395 28.2559C26.1348 28.2559 27.4062 26.957 27.4062 24.5508ZM30.5918 29.5V19.6016H34.1191C36.416 19.6016 37.5508 20.9824 37.5508 22.8145C37.5508 24.6328 36.416 26.0273 34.1191 26.0273H32.0957V29.5H30.5918ZM32.0957 24.7422H33.9688C35.4316 24.7422 36.0332 23.9219 36.0332 22.8145C36.0332 21.6934 35.4316 20.8867 33.9688 20.8867H32.0957V24.7422Z" fill="white"/>
</svg>
