<?xml version="1.0" encoding="UTF-8"?>
<svg id="Layer_1" data-name="Layer 1" xmlns="http://www.w3.org/2000/svg" viewBox="0 0 40 40">
  <defs>
    <style>
      .cls-1 {
        fill: #fff;
      }
    </style>
  </defs>
  <path class="cls-1" d="M39.88,11.75c-.1-2.13-.44-3.58-.93-4.85-.5-1.34-1.29-2.54-2.31-3.54-1-1.02-2.21-1.81-3.54-2.31-1.28-.5-2.73-.83-4.86-.93-2.13-.09-2.81-.12-8.24-.12s-6.11,.03-8.24,.12c-2.13,.1-3.58,.43-4.86,.93-1.34,.5-2.54,1.29-3.54,2.31-1.02,1-1.81,2.21-2.31,3.54-.5,1.27-.83,2.72-.93,4.85-.1,2.14-.12,2.82-.12,8.25s.02,6.11,.12,8.24c.1,2.13,.43,3.58,.93,4.86,.51,1.31,1.19,2.43,2.31,3.54,1.11,1.11,2.23,1.8,3.54,2.31,1.28,.5,2.73,.83,4.85,.93,2.14,.1,2.81,.12,8.25,.12s6.11-.02,8.24-.12c2.13-.1,3.58-.43,4.86-.93,1.33-.5,2.54-1.29,3.54-2.31,1.11-1.11,1.8-2.23,2.31-3.54,.49-1.27,.83-2.73,.93-4.86,.1-2.13,.12-2.81,.12-8.24s-.03-6.11-.12-8.25Zm-3.6,16.32c-.09,1.95-.42,3.01-.69,3.71-.32,.87-.83,1.65-1.5,2.3-.7,.7-1.36,1.13-2.3,1.5-.7,.27-1.76,.6-3.71,.69-2.11,.09-2.74,.12-8.08,.12s-5.97-.02-8.08-.12c-1.95-.09-3.01-.42-3.71-.69-.87-.32-1.65-.83-2.3-1.5-.66-.65-1.18-1.43-1.5-2.3-.27-.7-.6-1.76-.69-3.71-.09-2.11-.11-2.74-.11-8.08s.02-5.97,.11-8.08c.09-1.95,.42-3.01,.69-3.72,.36-.93,.8-1.6,1.5-2.3,.7-.7,1.36-1.13,2.3-1.49,.7-.28,1.76-.6,3.71-.69,1.84-.09,2.56-.11,6.29-.11h0s1.79,0,1.79,0c5.34,0,5.97,.02,8.08,.11,1.95,.09,3.01,.42,3.71,.69,.93,.36,1.6,.8,2.3,1.5,.7,.7,1.13,1.36,1.5,2.3,.27,.7,.6,1.76,.69,3.71,.1,2.11,.12,2.74,.12,8.08s-.02,5.97-.12,8.08Z"/>
  <g id="Layer_1-2" data-name="Layer 1-2">
    <g>
      <path class="cls-1" d="M22.23,25.12c-.6-.62-1.19-1.23-1.77-1.83,0,0,0,0,0-.01,1.13-1.38,2.51-2.4,4.51-2.53,2.34-.15,4.43,.93,5.42,2.78,1.82,3.41-1.31,7.28-5.53,6.95-1.35-.1-2.53-.65-3.52-1.63-1.59-1.59-3.12-3.21-4.69-4.82-.76-.78-1.76-1.03-2.9-.77-.59,.14-1.11,.45-1.45,.9-1.42,1.86,.27,4.05,2.5,3.84,.78-.07,1.41-.37,1.91-.9,.33-.34,.66-.68,1.01-1.04,0,0,.01,0,.02,0,.6,.62,1.19,1.23,1.78,1.83,0,0,0,0,0,.01-.86,1.03-1.84,1.88-3.19,2.29-3.21,.98-6.69-.91-7.17-3.9-.43-2.71,1.67-5.2,4.74-5.53,1.85-.2,3.47,.31,4.72,1.55,1.6,1.59,3.14,3.22,4.71,4.83,1.39,1.42,4.06,1.11,4.78-.88,.22-.6,.12-1.26-.22-1.82-.57-.94-1.5-1.35-2.67-1.27-.79,.05-1.42,.37-1.93,.9-.32,.34-.66,.67-1,1.03,0,0-.01,0-.02,0h0Z"/>
      <g>
        <path class="cls-1" d="M10.02,19.74c-.62,.31-1.29,.47-2.02,.49v-1.84c.63-.05,1.17-.27,1.61-.66,.44-.39,.74-.85,.91-1.41h-2.39v-1.76h2.44v-1.03h2.23v1.03h2.44v1.27h1.14v-2.1h2.19l.05,7.87c-.6-.6-1.35-1.1-2.25-1.25v-2.57h-1.45v-1.45h-2.17c-.07,.28-.13,.48-.18,.61l2.99,1.61-.99,1.61-2.96-1.64c-.45,.51-.99,.92-1.6,1.23Z"/>
        <path class="cls-1" d="M24.99,16.15v-.64h-4.48v-1.66h6.65v3.84h-4.45v.64h2.73c.5,0,.98-.03,1.43-.1,.45-.07,.83-.16,1.12-.27v1.64c-.28,.13-.65,.23-1.13,.3s-.98,.1-1.52,.1h-4.8v-3.84h4.45Zm5.71,.18v.82h1.3v1.83h-1.3v3.69c-.5-.9-1.24-1.56-2.19-2.02v-6.93h2.19v.78h1.3v1.83h-1.3Z"/>
      </g>
      <g>
        <path class="cls-1" d="M10.59,9.49l1.14,2.04,1.14-2.04h.34v3h-.39v-2.21l-.95,1.71h-.28l-.95-1.71v2.21h-.39v-3h.34Z"/>
        <path class="cls-1" d="M16.09,11.75h-1.42l-.3,.74h-.4l1.22-3h.41l1.21,3h-.42l-.3-.74Zm-.14-.35l-.57-1.45-.57,1.45h1.15Z"/>
        <path class="cls-1" d="M19.52,12.49l-.67-1.07c-.07,0-.13,0-.17,0h-.72v1.06h-.39v-3h1.11c.25,0,.46,.04,.64,.12,.18,.08,.31,.19,.41,.34,.09,.15,.14,.32,.14,.51,0,.21-.05,.39-.16,.55s-.26,.26-.47,.34l.74,1.15h-.46Zm-.26-1.57c.15-.11,.22-.26,.22-.46s-.07-.35-.22-.46c-.15-.11-.35-.16-.61-.16h-.69v1.24h.69c.26,0,.46-.05,.61-.16Z"/>
        <path class="cls-1" d="M22.03,11.16l-.53,.6v.74h-.39v-3h.39v1.73l1.51-1.73h.48l-1.22,1.38,1.3,1.62h-.49l-1.06-1.34h0Z"/>
        <path class="cls-1" d="M26.41,9.49v.35h-1.71v.94h1.58v.35h-1.58v1.01h1.74v.35h-2.13v-3h2.1Z"/>
        <path class="cls-1" d="M28.7,9.85v2.65h-.39v-2.65h-1.06v-.35h2.51v.35h-1.06Z"/>
      </g>
    </g>
  </g>
</svg>