<svg width="30" height="30" viewBox="0 0 30 30" fill="none" xmlns="http://www.w3.org/2000/svg">
<g id="svg.instagram">
<path id="Vector" d="M15 0.00195312C10.9294 0.00195312 10.4175 0.0207031 8.81812 0.0919531C7.21875 0.166953 6.12937 0.418203 5.175 0.789453C4.17346 1.16506 3.26651 1.75583 2.51813 2.52008C1.75387 3.26847 1.16311 4.17541 0.7875 5.17695C0.41625 6.12945 0.163125 7.2207 0.09 8.81445C0.01875 10.4176 0 10.9276 0 15.0038C0 19.0763 0.01875 19.5863 0.09 21.1857C0.165 22.7832 0.41625 23.8726 0.7875 24.827C1.17188 25.8132 1.68375 26.6495 2.51813 27.4838C3.35063 28.3182 4.18687 28.832 5.17313 29.2145C6.12937 29.5857 7.21688 29.8388 8.81437 29.912C10.4156 29.9832 10.9256 30.002 15 30.002C19.0744 30.002 19.5825 29.9832 21.1838 29.912C22.7794 29.837 23.8725 29.5857 24.8269 29.2145C25.8277 28.8386 26.734 28.2479 27.4819 27.4838C28.3162 26.6495 28.8281 25.8132 29.2125 24.827C29.5819 23.8726 29.835 22.7832 29.91 21.1857C29.9812 19.5863 30 19.0763 30 15.002C30 10.9276 29.9812 10.4176 29.91 8.81633C29.835 7.2207 29.5819 6.12945 29.2125 5.17695C28.8369 4.17541 28.2461 3.26847 27.4819 2.52008C26.7335 1.75583 25.8265 1.16506 24.825 0.789453C23.8687 0.418203 22.7775 0.165078 21.1819 0.0919531C19.5806 0.0207031 19.0725 0.00195312 14.9963 0.00195312H15ZM13.6556 2.7057H15.0019C19.0069 2.7057 19.4812 2.71883 21.0619 2.79195C22.5244 2.85758 23.3194 3.1032 23.8481 3.30758C24.5475 3.57945 25.0481 3.9057 25.5731 4.4307C26.0981 4.9557 26.4225 5.45445 26.6944 6.1557C26.9006 6.68258 27.1444 7.47758 27.21 8.94008C27.2831 10.5207 27.2981 10.9951 27.2981 14.9982C27.2981 19.0013 27.2831 19.4776 27.21 21.0582C27.1444 22.5207 26.8988 23.3138 26.6944 23.8426C26.4522 24.493 26.0686 25.0816 25.5712 25.5657C25.0462 26.0907 24.5475 26.4151 23.8463 26.687C23.3213 26.8932 22.5262 27.137 21.0619 27.2045C19.4812 27.2757 19.0069 27.2926 15.0019 27.2926C10.9969 27.2926 10.5206 27.2757 8.94 27.2045C7.4775 27.137 6.68437 26.8932 6.15562 26.687C5.50469 26.4456 4.9155 26.0626 4.43062 25.5657C3.93239 25.0812 3.54812 24.492 3.30562 23.8407C3.10125 23.3138 2.85563 22.5188 2.79 21.0563C2.71875 19.4757 2.70375 19.0013 2.70375 14.9945C2.70375 10.9876 2.71875 10.517 2.79 8.93633C2.8575 7.47383 3.10125 6.67883 3.3075 6.15008C3.57938 5.4507 3.90562 4.95008 4.43062 4.42508C4.95563 3.90008 5.45437 3.5757 6.15562 3.30383C6.68437 3.09758 7.4775 2.85383 8.94 2.78633C10.3238 2.72258 10.86 2.70383 13.6556 2.70195V2.7057ZM23.0081 5.1957C22.7717 5.1957 22.5377 5.24226 22.3193 5.33272C22.1009 5.42318 21.9025 5.55577 21.7353 5.72291C21.5682 5.89006 21.4356 6.08849 21.3451 6.30687C21.2547 6.52526 21.2081 6.75932 21.2081 6.9957C21.2081 7.23208 21.2547 7.46615 21.3451 7.68453C21.4356 7.90292 21.5682 8.10135 21.7353 8.2685C21.9025 8.43564 22.1009 8.56823 22.3193 8.65869C22.5377 8.74914 22.7717 8.7957 23.0081 8.7957C23.4855 8.7957 23.9434 8.60606 24.2809 8.2685C24.6185 7.93093 24.8081 7.47309 24.8081 6.9957C24.8081 6.51831 24.6185 6.06048 24.2809 5.72291C23.9434 5.38535 23.4855 5.1957 23.0081 5.1957ZM15.0019 7.29945C13.9801 7.28351 12.9654 7.47099 12.0168 7.85097C11.0682 8.23095 10.2047 8.79584 9.47653 9.51275C8.74835 10.2297 8.17006 11.0843 7.77533 12.0268C7.3806 12.9694 7.17731 13.981 7.17731 15.0029C7.17731 16.0248 7.3806 17.0364 7.77533 17.979C8.17006 18.9215 8.74835 19.7761 9.47653 20.493C10.2047 21.2099 11.0682 21.7748 12.0168 22.1548C12.9654 22.5348 13.9801 22.7223 15.0019 22.7063C17.0241 22.6748 18.9529 21.8493 20.3718 20.408C21.7908 18.9668 22.5861 17.0254 22.5861 15.0029C22.5861 12.9804 21.7908 11.039 20.3718 9.59773C18.9529 8.15649 17.0241 7.331 15.0019 7.29945ZM15.0019 10.0013C15.6586 10.0013 16.3088 10.1307 16.9155 10.382C17.5222 10.6333 18.0735 11.0016 18.5379 11.466C19.0022 11.9303 19.3705 12.4816 19.6219 13.0883C19.8732 13.695 20.0025 14.3453 20.0025 15.002C20.0025 15.6586 19.8732 16.3089 19.6219 16.9156C19.3705 17.5223 19.0022 18.0736 18.5379 18.5379C18.0735 19.0023 17.5222 19.3706 16.9155 19.6219C16.3088 19.8732 15.6586 20.0026 15.0019 20.0026C13.6756 20.0026 12.4037 19.4757 11.4659 18.5379C10.5281 17.6001 10.0013 16.3282 10.0013 15.002C10.0013 13.6757 10.5281 12.4038 11.4659 11.466C12.4037 10.5282 13.6756 10.0013 15.0019 10.0013Z" fill="white"/>
</g>
</svg>
