<svg width="21" height="29" viewBox="0 0 21 29" fill="none" xmlns="http://www.w3.org/2000/svg">
<rect x="1.5" y="13.354" width="18" height="14" rx="3.5" stroke="#214AEE" stroke-width="3" stroke-linejoin="round"/>
<path d="M14 14V9.5C14 7.567 12.433 6 10.5 6C8.567 6 7 7.567 7 9.5V14H5C4.65753 14 4.32311 14.0344 4 14.1V9.5C4 5.91015 6.91015 3 10.5 3C14.0899 3 17 5.91015 17 9.5V14.1C16.6769 14.0344 16.3425 14 16 14H14Z" fill="#214AEE"/>
<path d="M14 14V9.5C14 7.567 12.433 6 10.5 6C8.567 6 7 7.567 7 9.5V14H5C4.65753 14 4.32311 14.0344 4 14.1V9.5C4 5.91015 6.91015 3 10.5 3C14.0899 3 17 5.91015 17 9.5V14.1C16.6769 14.0344 16.3425 14 16 14H14Z" stroke="#214AEE"/>
</svg>
