<svg width="208" height="74" viewBox="0 0 208 74" fill="none" xmlns="http://www.w3.org/2000/svg">
<g clip-path="url(#clip0_632_588)">
<path d="M62.4305 50.5269C59.7793 47.8142 57.2137 45.1865 54.6481 42.5654C54.6283 42.5458 54.6283 42.5262 54.6481 42.5066C59.6017 36.4734 65.6474 32.0416 74.4429 31.4794C84.7054 30.8258 93.8824 35.5321 98.2243 43.5982C106.217 58.4557 92.4681 75.3526 73.9692 73.9146C68.042 73.457 62.8515 71.0777 58.5426 66.7963C51.5759 59.8806 44.8329 52.7885 37.9452 45.801C34.5967 42.4085 30.2417 41.2908 25.2026 42.4608C22.6238 43.0556 20.3213 44.4283 18.828 46.3827C12.5981 54.4945 20.0318 64.0509 29.7878 63.1424C33.1889 62.8221 35.965 61.5148 38.1754 59.2205C39.6161 57.7236 41.0831 56.2463 42.6094 54.6841C42.6291 54.6645 42.6686 54.6645 42.6883 54.6841C45.3329 57.3968 47.9182 60.0375 50.4773 62.6587C50.497 62.6783 50.497 62.6979 50.4773 62.7175C46.7078 67.195 42.4054 70.9012 36.4716 72.7053C22.4067 76.9802 7.11161 68.7246 4.9999 55.6842C3.09212 43.8662 12.3086 32.9959 25.7749 31.571C33.8928 30.7147 40.9779 32.9175 46.4644 38.3297C53.4771 45.2454 60.2398 52.3636 67.1275 59.3839C73.2061 65.5805 84.9619 64.2405 88.0867 55.5535C89.034 52.9192 88.613 50.0563 87.1197 47.6312C84.6133 43.5459 80.5412 41.7614 75.3902 42.0882C71.943 42.3105 69.1472 43.6962 66.9236 46.0232C65.5027 47.507 64.0488 48.9646 62.516 50.5334C62.4963 50.553 62.4568 50.553 62.4371 50.5334L62.4305 50.5269Z" fill="white"/>
<path d="M8.8547 27.0743C6.13777 28.4143 3.19059 29.1202 0 29.1987V21.1653C2.76956 20.9365 5.12468 19.9887 7.05876 18.3088C8.99285 16.6289 10.3217 14.583 11.0454 12.171H0.572332V4.47098H11.2756V0H21.071V4.47098H31.7743V10.014H36.7871V0.849748H46.4115L46.6484 35.1534C44.017 32.5388 40.7211 30.3752 36.7806 29.7216V18.5049H30.4125V12.1645H20.9C20.5974 13.3737 20.3342 14.2562 20.104 14.8248L33.2018 21.8385L28.8732 28.8522L15.8872 21.7209C13.9136 23.9498 11.5651 25.7278 8.8547 27.0677V27.0743Z" fill="white"/>
<path d="M74.5419 11.4322V8.66076H54.8984V1.41175H84.0545V18.1649H64.5228V20.9363H76.4826C78.6864 20.9363 80.785 20.786 82.7783 20.4853C84.7716 20.1847 86.4162 19.7859 87.7056 19.2957V26.427C86.4886 26.9957 84.8373 27.4271 82.7519 27.7278C80.6665 28.0285 78.443 28.1788 76.0879 28.1788H55.0169V11.4322H74.5485H74.5419ZM99.5996 12.2232V15.7856H105.297V23.7667H99.5996V39.8531C97.4023 35.9507 94.146 33.0551 89.9752 31.0484V0.849609H99.5996V4.24207H105.297V12.2232H99.5996Z" fill="white"/>
<path d="M111.152 1.19H136.96V42.1609H111.152V1.19ZM119.928 34.0556H128.184V9.29529H119.928V34.0622V34.0556ZM156.485 24.715H151.295V44.2199H142.519V0.157227H151.295V16.2567H156.485V24.7215V24.715Z" fill="white"/>
<path d="M174.246 26.3229C170.923 28.2185 166.957 29.1598 162.352 29.1598V21.8323C165.016 21.7997 167.2 21.4728 168.897 20.8519C170.594 20.2309 171.89 19.27 172.792 17.9627H162.352V10.8902H174.66V7.89647H162.352V0.673612H182.758V10.1712H186.6V0.366395H194.698V24.7738H186.6V18.1196H181.357C179.936 21.6951 177.568 24.4339 174.246 26.3229ZM205.145 44.7429L185.153 37.52C182.594 39.7228 179.535 41.3896 175.989 42.527C172.436 43.6643 168.693 44.2265 164.746 44.2265V36.0754C167.687 36.0754 170.43 35.6636 172.976 34.84C175.522 34.0164 177.66 32.8268 179.39 31.2776C181.12 29.7285 182.278 27.8917 182.87 25.7543L191.646 27.4538C191.297 28.8264 190.777 30.1403 190.087 31.3757L208 37.0494L205.145 44.7363V44.7429ZM205.974 31.2776H197.77V0.157227H205.974V31.2711V31.2776Z" fill="white"/>
<path d="M111.152 49.8672H115.474L123.849 63.3716L132.223 49.8672H136.545V74H131.125V60.7636L125.494 70.0324H122.217L116.586 60.7636V74H111.159V49.8672H111.152Z" fill="white"/>
<path d="M156.4 69.3199H146.986L145.289 74H139.684L149.097 49.8672H154.729L164.143 74H158.09L156.393 69.3199H156.4ZM154.729 64.6397L151.689 56.2272L148.65 64.6397H154.729Z" fill="white"/>
<path d="M172.194 49.8672V69.2349H184.325V74H166.773V49.8672H172.201H172.194Z" fill="white"/>
<path d="M193.85 49.8672V69.2349H205.981V74H188.43V49.8672H193.857H193.85Z" fill="white"/>
</g>
<defs>
<clipPath id="clip0_632_588">
<rect width="208" height="74" fill="white"/>
</clipPath>
</defs>
</svg>
