<svg width="21" height="28" viewBox="0 0 21 28" fill="none" xmlns="http://www.w3.org/2000/svg">
<rect x="1.5" y="12.5" width="18" height="14" rx="3.5" stroke="#214AEE" stroke-width="3" stroke-linejoin="round"/>
<path d="M14 8.64599C14 6.713 13 5.146 10.5 5.14599C8.567 5.14599 7 6.713 7 8.64599V13.146H5C4.65753 13.146 4.32311 13.1804 4 13.246V8.64599C4 5.05614 6.91015 2.146 10.5 2.146C14.5 2.146 17 5.05614 17 8.64599C17 8.64599 17 10 15.5 10C14 10 14 8.64599 14 8.64599Z" fill="#214AEE"/>
<path d="M14 8.64599C14 6.713 13 5.146 10.5 5.14599C8.567 5.14599 7 6.713 7 8.64599V13.146H5C4.65753 13.146 4.32311 13.1804 4 13.246V8.64599C4 5.05614 6.91015 2.146 10.5 2.146C14.5 2.146 17 5.05614 17 8.64599C17 8.64599 17 10 15.5 10C14 10 14 8.64599 14 8.64599Z" stroke="#214AEE"/>
</svg>
