<svg width="30" height="22" viewBox="0 0 30 22" fill="none" xmlns="http://www.w3.org/2000/svg">
<g id="svg.youtube">
<path id="Vector" d="M15.0966 0.464844H15.2635C16.8048 0.470469 24.6147 0.526723 26.7204 1.09301C27.357 1.26584 27.9371 1.60271 28.4027 2.06996C28.8683 2.53721 29.2031 3.11848 29.3737 3.75567C29.5631 4.46822 29.6962 5.4114 29.7862 6.38459L29.805 6.5796L29.8462 7.06713L29.8612 7.26214C29.9831 8.976 29.9981 10.5811 30 10.9317V11.0724C29.9981 11.4362 29.9812 13.15 29.8462 14.9351L29.8312 15.132L29.8144 15.327C29.7206 16.3996 29.5818 17.4647 29.3737 18.2485C29.2031 18.8857 28.8683 19.4669 28.4027 19.9342C27.9371 20.4014 27.357 20.7383 26.7204 20.9111C24.5453 21.4962 16.2779 21.5374 15.1322 21.5393H14.8659C14.2865 21.5393 11.8901 21.528 9.37746 21.4418L9.05869 21.4305L8.89556 21.423L8.57491 21.4099L8.25427 21.3968C6.17289 21.3049 4.19089 21.1568 3.2777 20.9092C2.64134 20.7366 2.06141 20.4 1.59582 19.9331C1.13023 19.4662 0.795281 18.8853 0.624414 18.2485C0.416276 17.4665 0.277517 16.3996 0.183761 15.327L0.168761 15.1301L0.15376 14.9351C0.0606852 13.6646 0.00940431 12.3913 0 11.1174L0 10.8867C0.00375023 10.4836 0.0187512 9.09038 0.120008 7.55279L0.133133 7.35965L0.138759 7.26214L0.15376 7.06713L0.195012 6.5796L0.213763 6.38459C0.303769 5.4114 0.436902 4.46634 0.626289 3.75567C0.796869 3.11848 1.13169 2.53721 1.5973 2.06996C2.06291 1.60271 2.64299 1.26584 3.27958 1.09301C4.19276 0.849243 6.17476 0.699233 8.25614 0.605477L8.57491 0.592352L8.89743 0.581101L9.05869 0.575476L9.37934 0.56235C11.1639 0.504978 12.9492 0.473098 14.7347 0.466719L15.0966 0.464844ZM12.0008 6.48397V15.5183L19.7956 11.003L12.0008 6.48397Z" fill="white"/>
</g>
</svg>
