<?xml version="1.0" encoding="UTF-8"?>
<svg id="Layer_1" data-name="Layer 1" xmlns="http://www.w3.org/2000/svg" viewBox="0 0 160.06 140.11">
  <defs>
    <style>
      .cls-1 {
        fill: #214aee;
      }
    </style>
  </defs>
  <path class="cls-1" d="M94.9,104.21c-4.03-4.15-7.93-8.17-11.83-12.18-.03-.03-.03-.06,0-.09,7.53-9.23,16.72-16.01,30.09-16.87,15.6-1,29.55,6.2,36.15,18.54,12.15,22.73-8.75,48.58-36.87,46.38-9.01-.7-16.9-4.34-23.45-10.89-10.59-10.58-20.84-21.43-31.31-32.12-5.09-5.19-11.71-6.9-19.37-5.11-3.92,.91-7.42,3.01-9.69,6-9.47,12.41,1.83,27.03,16.66,25.64,5.17-.49,9.39-2.49,12.75-6,2.19-2.29,4.42-4.55,6.74-6.94,.03-.03,.09-.03,.12,0,4.02,4.15,7.95,8.19,11.84,12.2,.03,.03,.03,.06,0,.09-5.73,6.85-12.27,12.52-21.29,15.28-21.38,6.54-44.63-6.09-47.84-26.04-2.9-18.08,11.11-34.71,31.58-36.89,12.34-1.31,23.11,2.06,31.45,10.34,10.66,10.58,20.94,21.47,31.41,32.21,9.24,9.48,27.11,7.43,31.86-5.86,1.44-4.03,.8-8.41-1.47-12.12-3.81-6.25-10-8.98-17.83-8.48-5.24,.34-9.49,2.46-12.87,6.02-2.16,2.27-4.37,4.5-6.7,6.9-.03,.03-.09,.03-.12,0Z"/>
  <g>
    <path class="cls-1" d="M13.46,68.33c-4.13,2.05-8.61,3.13-13.46,3.25v-12.29c4.21-.35,7.79-1.8,10.73-4.37,2.94-2.57,4.96-5.7,6.06-9.39H.87v-11.77H17.14v-6.84h14.89v6.84h16.27v8.48h7.62v-14.02h14.63v43.89h-14.63v-16.88h-9.69v-9.7h-14.46c-.46,1.85-.86,3.2-1.21,4.07l19.91,10.73-6.58,10.73-19.74-10.91c-3,3.41-6.57,6.13-10.69,8.18Z"/>
    <path class="cls-1" d="M113.31,44.39v-4.24h-29.86v-11.08h44.32v25.62h-29.69v4.24h18.18c3.35,0,6.54-.23,9.57-.69,3.03-.46,5.53-1.07,7.49-1.82v10.91c-1.85,.87-4.36,1.53-7.53,1.99-3.17,.46-6.55,.69-10.13,.69h-32.03v-25.62h29.69Zm38.09,1.21v5.45h8.66v12.21h-8.66v8.83h-14.63V28.2h14.63v5.19h8.66v12.21h-8.66Z"/>
  </g>
  <g>
    <path class="cls-1" d="M17.25,0l7.6,13.58L32.44,0h2.26V20h-2.58V5.24l-6.34,11.39h-1.87l-6.34-11.39v14.76h-2.58V0h2.26Z"/>
    <path class="cls-1" d="M53.98,15.06h-9.46l-1.97,4.94h-2.7L47.96,0h2.73l8.09,20h-2.83l-1.97-4.94Zm-.91-2.32l-3.81-9.66-3.83,9.66h7.65Z"/>
    <path class="cls-1" d="M76.8,20l-4.47-7.12c-.49,.03-.86,.05-1.11,.05h-4.79v7.07h-2.58V0h7.37c1.64,0,3.05,.26,4.24,.79,1.19,.52,2.09,1.27,2.72,2.25,.62,.97,.93,2.12,.93,3.43,0,1.42-.36,2.63-1.08,3.65-.72,1.02-1.76,1.76-3.12,2.25l4.94,7.64h-3.05Zm-1.72-10.47c.97-.71,1.45-1.73,1.45-3.06s-.48-2.35-1.45-3.06c-.97-.71-2.32-1.06-4.06-1.06h-4.6V10.59h4.6c1.74,0,3.09-.35,4.06-1.06Z"/>
    <path class="cls-1" d="M93.58,11.09l-3.54,3.99v4.92h-2.58V0h2.58V11.54L100.14,0h3.22l-8.11,9.19,8.68,10.81h-3.29l-7.05-8.91Z"/>
    <path class="cls-1" d="M122.78,0V2.32h-11.41v6.29h10.55v2.32h-10.55v6.74h11.63v2.32h-14.21V0h13.99Z"/>
    <path class="cls-1" d="M138.02,2.35V20h-2.58V2.35h-7.08V0h16.72V2.35h-7.06Z"/>
  </g>
</svg>