<?xml version="1.0" encoding="UTF-8"?>
<svg id="Layer_1" data-name="Layer 1" xmlns="http://www.w3.org/2000/svg" viewBox="0 0 166.38 153.67">
  <defs>
    <style>
      .cls-1 {
        fill: #214aee;
      }
    </style>
  </defs>
  <g>
    <path class="cls-1" d="M14.35,67.74c-4.25,2.66-9.04,4.26-14.35,4.8v-7.78c5.79-.85,10.56-3.27,14.3-7.29,3.74-4.01,6.03-8.86,6.88-14.53H.81v-7.51H21.27v-8.6h9.05v8.6h20.19v7.51H30.33c-.36,2.72-1,5.28-1.9,7.69l23.45,14.57-4.25,6.7-22.72-14.3c-2.78,4.11-6.29,7.48-10.55,10.14Zm47.93-20.82V28.18h8.96v46.08h-8.96v-19.37h-14.85v-7.97h14.85Z"/>
    <path class="cls-1" d="M124.29,46.74v-9.32h-36.21v-7.33h45.08v23.81h-36.03v9.51h19.46c5.25,0,10-.3,14.26-.91,4.25-.6,7.62-1.45,10.09-2.54v7.33c-2.41,1.03-5.81,1.86-10.18,2.49-4.38,.63-9.28,.95-14.71,.95h-27.79v-23.99h36.03Zm31.23-2.26v9.69h10.86v7.6h-10.86v12.49h-8.96V28.18h8.96v8.69h10.86v7.6h-10.86Z"/>
    <g>
      <path class="cls-1" d="M156.72,98.4l-15.25-15.25c-9.14-9.14-24.02-9.14-33.16,0l-15.25,15.25c-.31,.31-.61,.64-.91,.96l6.65,6.65c.28-.34,.57-.67,.89-.98l15.25-15.25c2.66-2.66,6.19-4.12,9.95-4.12s7.29,1.46,9.95,4.12l15.25,15.25c5.49,5.49,5.49,14.41,0,19.9l-15.25,15.25c-2.66,2.66-6.19,4.12-9.95,4.12s-7.29-1.46-9.95-4.12l-15.25-15.25c-3.7-3.7-4.89-8.96-3.6-13.67l-7.2-7.2c-4.65,8.85-3.26,20.07,4.17,27.5l15.25,15.25c4.57,4.57,10.58,6.86,16.58,6.86,6,0,12.01-2.29,16.58-6.86l15.25-15.25c9.14-9.14,9.14-24.02,0-33.16Z"/>
      <path class="cls-1" d="M98.01,124.44c-.15,.16-.29,.33-.44,.49l-15.25,15.25c-2.66,2.66-6.19,4.12-9.95,4.12s-7.29-1.46-9.95-4.12l-15.25-15.25c-5.49-5.49-5.49-14.41,0-19.9l15.25-15.25c2.66-2.66,6.19-4.12,9.95-4.12s7.29,1.46,9.95,4.12l15.25,15.25c3.89,3.89,5.01,9.5,3.38,14.39l7.08,7.08c5.04-8.94,3.77-20.5-3.84-28.11l-15.25-15.25c-9.14-9.14-24.02-9.14-33.16,0l-15.25,15.25c-9.14,9.14-9.14,24.02,0,33.16l15.25,15.25c4.57,4.57,10.58,6.86,16.58,6.86,6,0,12.01-2.29,16.58-6.86l15.25-15.25c.16-.16,.3-.32,.45-.48l-6.64-6.64Z"/>
    </g>
  </g>
  <g>
    <path class="cls-1" d="M20.41,0l7.6,13.58L35.6,0h2.26V20h-2.58V5.24l-6.34,11.39h-1.87l-6.34-11.39v14.76h-2.58V0h2.26Z"/>
    <path class="cls-1" d="M57.14,15.06h-9.46l-1.97,4.94h-2.7L51.12,0h2.73l8.09,20h-2.83l-1.97-4.94Zm-.91-2.32l-3.81-9.66-3.83,9.66h7.65Z"/>
    <path class="cls-1" d="M79.96,20l-4.47-7.12c-.49,.03-.86,.05-1.11,.05h-4.79v7.07h-2.58V0h7.37c1.64,0,3.05,.26,4.24,.79,1.19,.52,2.09,1.27,2.72,2.25,.62,.97,.93,2.12,.93,3.43,0,1.42-.36,2.63-1.08,3.65-.72,1.02-1.76,1.76-3.12,2.25l4.94,7.64h-3.05Zm-1.72-10.47c.97-.71,1.45-1.73,1.45-3.06s-.48-2.35-1.45-3.06c-.97-.71-2.32-1.06-4.06-1.06h-4.6V10.59h4.6c1.74,0,3.09-.35,4.06-1.06Z"/>
    <path class="cls-1" d="M96.74,11.09l-3.54,3.99v4.92h-2.58V0h2.58V11.54L103.3,0h3.22l-8.11,9.19,8.68,10.81h-3.29l-7.05-8.91Z"/>
    <path class="cls-1" d="M125.94,0V2.32h-11.41v6.29h10.55v2.32h-10.55v6.74h11.63v2.32h-14.21V0h13.99Z"/>
    <path class="cls-1" d="M141.18,2.35V20h-2.58V2.35h-7.08V0h16.72V2.35h-7.06Z"/>
  </g>
</svg>