<svg width="1789" height="400" viewBox="0 0 1789 400" fill="none" xmlns="http://www.w3.org/2000/svg">
<mask id="mask0_967_590" style="mask-type:alpha" maskUnits="userSpaceOnUse" x="-131" y="0" width="1920" height="400">
<rect x="-131" width="1920" height="400" fill="#FFFADE"/>
</mask>
<g mask="url(#mask0_967_590)">
<path opacity="0.7" d="M326.859 132.623C326.26 139.892 331.996 146.125 339.288 146.125H346.074C352.416 146.125 357.747 141.37 358.463 135.066L363.187 93.7115C363.957 86.9643 369.981 82.0771 376.744 82.7074L391.265 84.0693C397.764 84.6763 402.69 90.194 402.573 96.7155L401.701 144.102C401.569 151.44 407.772 157.316 415.095 156.771L437.422 155.114C443.772 154.647 448.753 149.456 448.963 143.09L455.485 -52.1203C455.726 -59.1555 450.076 -65 443.025 -65H354.798C348.307 -65 342.906 -60.0271 342.369 -53.5601L326.867 132.623H326.859Z" fill="#F3E873" fill-opacity="0.5"/>
<path opacity="0.7" d="M449.059 425.494L455.799 444.093C458.172 450.654 465.472 453.992 471.993 451.494L502.866 439.657C509.496 437.112 512.664 429.564 509.846 423.05L502.22 405.454C499.597 399.407 492.733 396.45 486.539 398.684L456.561 409.517C450.079 411.859 446.724 419.011 449.075 425.494H449.059Z" fill="#F3E873" fill-opacity="0.5"/>
<path opacity="0.7" d="M845.097 -61.3346C844.622 -63.4747 842.723 -65 840.529 -65H830.894C826.116 -65 822.614 -60.5174 823.758 -55.8792L853.634 64.6837C854.311 67.4075 852.443 70.1157 849.657 70.4503L779.679 79.0186C775.096 79.3221 771.586 77.7968 770.06 71.9912L771.002 75.7968C769.944 71.2286 752.006 -6.31393 741.18 -54.4006C739.795 -60.603 734.293 -65 727.935 -65H634.104C628.322 -65 623.653 -60.2995 623.684 -54.5173L625.357 215.551C625.131 220.594 628.338 223.722 633.606 221.885L771.804 176.134C774.154 175.355 776.706 176.546 777.625 178.85L790.894 212.259L815.618 271.326C816.637 273.762 815.439 276.564 812.964 277.505L667.397 332.892C662.774 334.65 660.369 339.756 661.957 344.441L670.65 370.106C671.498 372.62 674.276 373.92 676.751 372.97L908.873 283.941C915.449 281.42 919.184 274.47 917.667 267.591L845.097 -61.3346Z" fill="#F3E873" fill-opacity="0.5"/>
<path opacity="0.7" d="M554.963 216.671L554.628 226.173C554.364 233.784 561.329 239.613 568.777 238.002L597.439 231.808C602.84 230.64 606.684 225.847 606.653 220.321L606.583 207.924C606.544 200.936 600.419 195.542 593.485 196.391L565.422 199.815C559.718 200.508 555.36 205.255 555.158 211.006L554.955 216.679L554.963 216.671Z" fill="#F3E873" fill-opacity="0.5"/>
<path opacity="0.7" d="M606.14 127.93C606.172 133.689 601.985 138.615 596.288 139.495L571.377 143.37C564.155 144.491 557.696 138.763 557.953 131.463L558.28 122.086L564.443 -53.778C564.661 -60.0349 569.805 -65 576.078 -65H593.463C599.868 -65 605.067 -59.8326 605.105 -53.4278L606.14 127.93Z" fill="#F3E873" fill-opacity="0.5"/>
<path opacity="0.7" d="M629.51 347.297L611.199 354.262C604.669 356.745 601.455 364.107 604.062 370.582L610.039 385.415C612.584 391.726 619.72 394.839 626.071 392.395L643.526 385.702C649.775 383.306 653.021 376.395 650.873 370.052L645.752 354.947C643.487 348.254 636.11 344.776 629.503 347.289L629.51 347.297Z" fill="#F3E873" fill-opacity="0.5"/>
<path opacity="0.7" d="M445.974 232.508L446.223 225.162C446.48 217.465 439.771 211.379 432.137 212.376L411.016 215.146C404.891 215.948 400.284 221.107 400.167 227.286L399.179 280.961C399.164 281.607 399.202 282.253 399.296 282.891L400.269 290.004C400.385 290.875 400.595 291.731 400.899 292.556L411.779 322.596C414.098 328.993 421.11 332.347 427.538 330.152L451.351 322.012C458.239 319.654 461.655 311.926 458.76 305.249L447.211 278.603C446.877 277.832 446.62 277.023 446.449 276.198L445.094 269.723C444.892 268.743 444.807 267.746 444.838 266.75L445.663 242.018L445.982 232.516L445.974 232.508Z" fill="#F3E873" fill-opacity="0.5"/>
<path opacity="0.8" d="M311.282 320.899L304.013 408.737C303.259 417.819 312.193 424.621 320.745 421.469L365.82 404.893C372.505 402.434 379.891 406.068 382.023 412.862L398.537 465.47C400.693 472.334 408.187 475.953 414.903 473.377L439.939 463.774C446.289 461.338 449.511 454.271 447.199 447.882L395.113 304.089C392.973 298.175 386.755 294.782 380.614 296.175L320.932 309.77C315.632 310.977 311.718 315.483 311.274 320.907L311.282 320.899Z" fill="#FFEA7D"/>
<path opacity="0.8" d="M496.192 117.082C496.208 121.315 492.877 124.802 488.643 124.973L472.316 125.65C465.063 125.953 459.094 120.023 459.335 112.77L464.876 -52.9531C465.102 -59.6691 470.612 -65 477.336 -65H483.554C490.441 -65 496.021 -59.4201 496.029 -52.5406L496.184 117.082H496.192Z" fill="#FFEA7D"/>
<path opacity="0.8" d="M389.911 276.081L393.086 103.642C393.187 98.0151 388.938 93.2523 383.327 92.7309C377.491 92.1862 372.292 96.4042 371.631 102.225L366.634 145.946C366.012 151.378 361.412 155.487 355.941 155.487H334.875C329.272 155.487 324.61 159.783 324.151 165.363L314.057 287.389C313.458 294.642 320.081 300.385 327.17 298.766L381.537 286.385C386.362 285.288 389.818 281.038 389.911 276.089V276.081Z" fill="#FFEA7D"/>
<path opacity="0.8" d="M401.136 174.352L400.701 197.948C400.615 202.757 404.825 206.524 409.596 205.901L447.021 200.99L447.223 200.967C452.04 200.337 456.274 204.173 456.118 209.037V209.24L455.69 221.746C455.527 226.649 459.838 230.501 464.686 229.8L489.823 226.15C493.706 225.59 496.578 222.252 496.562 218.329L496.275 142.211C496.259 137.744 492.539 134.187 488.08 134.374L465.861 135.293C461.745 135.464 458.46 138.779 458.32 142.896L457.962 153.604L457.885 155.939C457.752 159.955 454.608 163.231 450.6 163.527L448.266 163.698L408.421 166.647C404.366 166.951 401.206 170.289 401.129 174.352H401.136Z" fill="#FFEA7D"/>
<path opacity="0.8" d="M839.897 48.123L814.215 -55.529C812.838 -61.0933 807.842 -65 802.106 -65H763.981C755.981 -65 750.051 -57.5835 751.817 -49.7857C759.055 -17.7383 769.055 25.7801 776.65 58.6602C778.082 64.8705 783.973 69.0028 790.308 68.2324L829.297 63.493C836.729 62.5903 841.702 55.3839 839.897 48.1152V48.123Z" fill="#FFEA7D"/>
<path opacity="0.8" d="M549.282 111.805L555.057 -53.0698C555.29 -59.5913 550.06 -65 543.539 -65H525.787C519.406 -65 514.231 -59.8092 514.262 -53.4278L514.884 111.922C514.908 118.459 520.355 123.665 526.893 123.401L538.247 122.934C544.27 122.685 549.08 117.844 549.29 111.821L549.282 111.805Z" fill="#FFEA7D"/>
<path opacity="0.8" d="M548.043 147.013L548.277 140.351C548.44 135.767 544.666 132.024 540.082 132.211L522.525 132.935C518.3 133.114 514.961 136.6 514.977 140.826L515.249 213.364C515.265 218.15 519.514 221.816 524.253 221.123L539.047 218.975C542.814 218.431 545.646 215.263 545.779 211.458L546.098 202.321V202.15L546.199 199.473C546.331 195.667 549.172 192.5 552.946 191.955L555.841 191.535L599.5 186.204C603.469 185.722 606.442 182.344 606.418 178.344L606.294 156.53C606.27 151.721 601.967 148.055 597.212 148.795L557.118 155.036C552.238 155.799 547.872 151.923 548.043 146.982V147.013Z" fill="#FFEA7D"/>
<path opacity="0.8" d="M772.703 224.337L649.844 271.342C643.587 273.739 640.342 280.65 642.49 286.992L651.953 314.915C654.218 321.608 661.595 325.087 668.202 322.573L793.077 275.062C799.668 272.556 802.867 265.093 800.143 258.587L788.664 231.17C786.065 224.952 778.999 221.933 772.703 224.337Z" fill="#FFEA7D"/>
<path opacity="0.8" d="M595.864 241.715L570.097 247.287C562.54 248.921 558.276 256.968 561.163 264.143L591.233 338.768C593.77 345.071 600.891 348.176 607.234 345.764L627.359 338.106C633.631 335.717 636.892 328.799 634.736 322.448L610.316 249.925C608.292 243.91 602.066 240.376 595.856 241.715H595.864Z" fill="#FFEA7D"/>
<path opacity="0.8" d="M158.977 -65H303.253C314.195 -65 322.802 -55.6535 321.899 -44.7505L276.661 502.872C275.812 513.152 266.808 520.802 256.528 519.977L100.221 507.51C89.7229 506.67 81.9873 497.339 83.1079 486.872L140.378 -48.2837C141.389 -57.7858 149.413 -65 158.977 -65Z" fill="#FFEA7D"/>
<path opacity="0.8" d="M647.74 262.128L768.661 215.862C775.152 213.38 778.358 206.065 775.798 199.605L774.895 197.341C772.459 191.2 765.65 188.025 759.385 190.103L636.69 230.75C630.121 232.929 626.58 240.042 628.798 246.595L631.475 254.486C633.748 261.186 641.133 264.657 647.748 262.128H647.74Z" fill="#FFEA7D"/>
<path d="M775.092 17.5388H776.316V18.2408C776.316 21.0668 774.516 23.4428 771.798 24.3608L771.078 23.1908C773.472 22.4168 775.092 20.4368 775.092 18.2408V17.5388ZM775.362 17.5388H776.586V18.2408C776.586 20.2568 778.26 22.0748 780.654 22.7768L779.97 23.9468C777.234 23.1008 775.362 20.9048 775.362 18.2408V17.5388ZM771.492 16.7288H780.168V17.9348H771.492V16.7288ZM775.092 14.6948H776.586V17.1608H775.092V14.6948ZM779.682 19.3928H783.354V20.6348H779.682V19.3928ZM782.922 14.7668H784.416V24.6128H782.922V14.7668ZM779.07 25.0448C782.436 25.0448 784.488 26.1428 784.488 28.0328C784.488 29.9048 782.436 31.0028 779.07 31.0028C775.686 31.0028 773.634 29.9048 773.634 28.0328C773.634 26.1428 775.686 25.0448 779.07 25.0448ZM779.07 26.2148C776.604 26.2148 775.128 26.8808 775.128 28.0328C775.128 29.1668 776.604 29.8328 779.07 29.8328C781.518 29.8328 783.012 29.1668 783.012 28.0328C783.012 26.8808 781.518 26.2148 779.07 26.2148ZM799.769 17.3048H802.631V18.5468H799.769V17.3048ZM799.769 20.7248H802.631V21.9668H799.769V20.7248ZM798.725 14.7668H800.219V24.6128H798.725V14.7668ZM788.303 22.4348H789.581C792.533 22.4348 794.639 22.3448 797.177 21.8948L797.303 23.1368C794.729 23.5688 792.587 23.6768 789.581 23.6768H788.303V22.4348ZM788.267 15.7748H795.593V20.2028H789.761V23.2268H788.303V19.0328H794.117V16.9988H788.267V15.7748ZM795.017 25.0988C798.347 25.0988 800.363 26.1788 800.363 28.0508C800.363 29.9408 798.347 31.0208 795.017 31.0208C791.705 31.0208 789.671 29.9408 789.671 28.0508C789.671 26.1788 791.705 25.0988 795.017 25.0988ZM795.017 26.2688C792.587 26.2688 791.129 26.9168 791.129 28.0508C791.129 29.2028 792.587 29.8508 795.017 29.8508C797.447 29.8508 798.923 29.2028 798.923 28.0508C798.923 26.9168 797.447 26.2688 795.017 26.2688ZM816.004 14.7488H817.498V31.0568H816.004V14.7488ZM805.096 25.8908H806.446C809.164 25.8908 811.594 25.7828 814.474 25.3148L814.636 26.5388C811.684 27.0248 809.236 27.1328 806.446 27.1328H805.096V25.8908ZM805.06 16.2788H812.584V22.0928H806.59V26.3588H805.096V20.8688H811.072V17.5028H805.06V16.2788ZM774.643 36.7848H776.137V49.1868H774.643V36.7848ZM771.889 41.0868H775.273V42.3108H771.889V41.0868ZM771.889 44.5248H775.273V45.7308H771.889V44.5248ZM762.781 38.7468H771.889V39.9528H762.781V38.7468ZM767.389 40.8528C769.549 40.8528 771.061 42.0948 771.061 43.9668C771.061 45.8208 769.549 47.0808 767.389 47.0808C765.211 47.0808 763.699 45.8208 763.699 43.9668C763.699 42.0948 765.211 40.8528 767.389 40.8528ZM767.389 42.0228C766.039 42.0228 765.121 42.8148 765.121 43.9668C765.121 45.1188 766.039 45.8928 767.389 45.8928C768.739 45.8928 769.657 45.1188 769.657 43.9668C769.657 42.8148 768.739 42.0228 767.389 42.0228ZM766.651 36.7488H768.145V39.5208H766.651V36.7488ZM765.679 51.4548H776.533V52.6788H765.679V51.4548ZM765.679 48.1248H767.173V52.0488H765.679V48.1248ZM791.688 36.7668H793.128V53.0388H791.688V36.7668ZM788.934 43.2828H792.066V44.5248H788.934V43.2828ZM787.998 37.1268H789.402V52.2108H787.998V37.1268ZM779.898 47.7828H780.96C783.336 47.7828 784.956 47.6928 786.846 47.2968L786.99 48.5388C785.046 48.9528 783.408 49.0248 780.96 49.0248H779.898V47.7828ZM779.898 38.7468H785.946V39.9708H781.374V48.3408H779.898V38.7468ZM800.164 38.1708H801.388V41.0868C801.388 44.8308 799.372 48.3048 796.708 49.6548L795.79 48.4308C798.202 47.2788 800.164 44.1648 800.164 41.0868V38.1708ZM800.416 38.1708H801.64V41.0868C801.64 44.0568 803.584 47.0448 805.996 48.1608L805.096 49.3488C802.45 48.0528 800.416 44.7048 800.416 41.0868V38.1708ZM807.688 36.7488H809.182V53.0568H807.688V36.7488ZM816.435 38.5128H817.659V39.8268C817.659 42.8148 815.859 45.3168 813.123 46.3068L812.367 45.1188C814.815 44.2548 816.435 42.1488 816.435 39.8268V38.5128ZM816.705 38.5128H817.929V39.8088C817.929 41.9328 819.477 43.8408 821.871 44.6328L821.151 45.8028C818.433 44.9028 816.705 42.5808 816.705 39.8088V38.5128ZM812.817 37.9728H821.511V39.1968H812.817V37.9728ZM823.563 36.7668H825.057V46.5768H823.563V36.7668ZM824.643 40.8888H827.469V42.1488H824.643V40.8888ZM819.873 47.0088C823.185 47.0088 825.219 48.1068 825.219 49.9968C825.219 51.9048 823.185 53.0028 819.873 53.0028C816.561 53.0028 814.527 51.9048 814.527 49.9968C814.527 48.1068 816.561 47.0088 819.873 47.0088ZM819.873 48.2148C817.461 48.2148 815.985 48.8628 815.985 49.9968C815.985 51.1488 817.461 51.8328 819.873 51.8328C822.285 51.8328 823.761 51.1488 823.761 49.9968C823.761 48.8628 822.285 48.2148 819.873 48.2148Z" fill="#717272"/>
<path d="M495.082 21.9694H496.306V22.6714C496.306 25.4974 494.506 27.8734 491.788 28.7914L491.068 27.6214C493.462 26.8474 495.082 24.8674 495.082 22.6714V21.9694ZM495.352 21.9694H496.576V22.6714C496.576 24.6874 498.25 26.5054 500.644 27.2074L499.96 28.3774C497.224 27.5314 495.352 25.3354 495.352 22.6714V21.9694ZM491.482 21.1594H500.158V22.3654H491.482V21.1594ZM495.082 19.1254H496.576V21.5914H495.082V19.1254ZM499.672 23.8234H503.344V25.0654H499.672V23.8234ZM502.912 19.1974H504.406V29.0434H502.912V19.1974ZM499.06 29.4754C502.426 29.4754 504.478 30.5734 504.478 32.4634C504.478 34.3354 502.426 35.4334 499.06 35.4334C495.676 35.4334 493.624 34.3354 493.624 32.4634C493.624 30.5734 495.676 29.4754 499.06 29.4754ZM499.06 30.6454C496.594 30.6454 495.118 31.3114 495.118 32.4634C495.118 33.5974 496.594 34.2634 499.06 34.2634C501.508 34.2634 503.002 33.5974 503.002 32.4634C503.002 31.3114 501.508 30.6454 499.06 30.6454ZM519.759 21.7354H522.621V22.9774H519.759V21.7354ZM519.759 25.1554H522.621V26.3974H519.759V25.1554ZM518.715 19.1974H520.209V29.0434H518.715V19.1974ZM508.293 26.8654H509.571C512.523 26.8654 514.629 26.7754 517.167 26.3254L517.293 27.5674C514.719 27.9994 512.577 28.1074 509.571 28.1074H508.293V26.8654ZM508.257 20.2054H515.583V24.6334H509.751V27.6574H508.293V23.4634H514.107V21.4294H508.257V20.2054ZM515.007 29.5294C518.337 29.5294 520.353 30.6094 520.353 32.4814C520.353 34.3714 518.337 35.4514 515.007 35.4514C511.695 35.4514 509.661 34.3714 509.661 32.4814C509.661 30.6094 511.695 29.5294 515.007 29.5294ZM515.007 30.6994C512.577 30.6994 511.119 31.3474 511.119 32.4814C511.119 33.6334 512.577 34.2814 515.007 34.2814C517.437 34.2814 518.913 33.6334 518.913 32.4814C518.913 31.3474 517.437 30.6994 515.007 30.6994ZM535.994 19.1794H537.488V35.4874H535.994V19.1794ZM525.086 30.3214H526.436C529.154 30.3214 531.584 30.2134 534.464 29.7454L534.626 30.9694C531.674 31.4554 529.226 31.5634 526.436 31.5634H525.086V30.3214ZM525.05 20.7094H532.574V26.5234H526.58V30.7894H525.086V25.2994H531.062V21.9334H525.05V20.7094ZM472.782 46.9754H474.258V49.9994H472.782V46.9754ZM466.176 49.2974H480.882V50.5034H466.176V49.2974ZM473.52 51.8354C477.012 51.8354 479.1 52.8434 479.1 54.6434C479.1 56.4434 477.012 57.4334 473.52 57.4334C470.028 57.4334 467.94 56.4434 467.94 54.6434C467.94 52.8434 470.028 51.8354 473.52 51.8354ZM473.52 52.9874C470.964 52.9874 469.452 53.5814 469.452 54.6434C469.452 55.7054 470.964 56.2814 473.52 56.2814C476.094 56.2814 477.588 55.7054 477.588 54.6434C477.588 53.5814 476.094 52.9874 473.52 52.9874ZM472.566 42.5294H473.898V43.0154C473.898 45.6254 470.91 47.3894 467.526 47.8034L466.986 46.5974C469.92 46.3094 472.566 44.8514 472.566 43.0154V42.5294ZM473.196 42.5294H474.51V43.0154C474.51 44.8514 477.156 46.3094 480.09 46.5974L479.55 47.8034C476.184 47.3894 473.196 45.6254 473.196 43.0154V42.5294ZM467.526 41.9354H479.568V43.1414H467.526V41.9354ZM493.877 41.1974H495.371V50.6474H493.877V41.1974ZM494.723 45.3374H497.783V46.5974H494.723V45.3374ZM485.147 51.3674H486.605V53.0954H493.895V51.3674H495.371V57.2534H485.147V51.3674ZM486.605 54.2474V56.0474H493.895V54.2474H486.605ZM482.789 42.8534H492.401V44.0774H482.789V42.8534ZM487.595 44.8154C489.917 44.8154 491.483 45.9494 491.483 47.6774C491.483 49.4054 489.917 50.5394 487.595 50.5394C485.255 50.5394 483.689 49.4054 483.689 47.6774C483.689 45.9494 485.255 44.8154 487.595 44.8154ZM487.595 45.9494C486.101 45.9494 485.111 46.6334 485.111 47.6774C485.111 48.7214 486.101 49.4054 487.595 49.4054C489.053 49.4054 490.061 48.7214 490.061 47.6774C490.061 46.6334 489.053 45.9494 487.595 45.9494ZM486.839 41.0354H488.333V43.5194H486.839V41.0354ZM501.166 48.7934H512.344V50.0174H501.166V48.7934ZM499.312 54.1754H514.054V55.4354H499.312V54.1754ZM505.9 49.3154H507.394V54.6794H505.9V49.3154ZM501.166 42.4934H512.182V43.7174H502.66V49.3334H501.166V42.4934ZM528.254 41.1974H529.694V57.4694H528.254V41.1974ZM525.68 47.6414H528.794V48.8654H525.68V47.6414ZM524.654 41.5394H526.076V56.6594H524.654V41.5394ZM516.446 43.0694H522.656V53.1134H516.446V43.0694ZM521.252 44.2574H517.85V51.9254H521.252V44.2574ZM536.713 42.6014H537.937V45.5174C537.937 49.2614 535.921 52.7354 533.257 54.0854L532.339 52.8614C534.751 51.7094 536.713 48.5954 536.713 45.5174V42.6014ZM536.965 42.6014H538.189V45.5174C538.189 48.4874 540.133 51.4754 542.545 52.5914L541.645 53.7794C538.999 52.4834 536.965 49.1354 536.965 45.5174V42.6014ZM544.237 41.1794H545.731V57.4874H544.237V41.1794ZM552.983 42.9434H554.207V44.2574C554.207 47.2454 552.407 49.7474 549.671 50.7374L548.915 49.5494C551.363 48.6854 552.983 46.5794 552.983 44.2574V42.9434ZM553.253 42.9434H554.477V44.2394C554.477 46.3634 556.025 48.2714 558.419 49.0634L557.699 50.2334C554.981 49.3334 553.253 47.0114 553.253 44.2394V42.9434ZM549.365 42.4034H558.059V43.6274H549.365V42.4034ZM560.111 41.1974H561.605V51.0074H560.111V41.1974ZM561.191 45.3194H564.017V46.5794H561.191V45.3194ZM556.421 51.4394C559.733 51.4394 561.767 52.5374 561.767 54.4274C561.767 56.3354 559.733 57.4334 556.421 57.4334C553.109 57.4334 551.075 56.3354 551.075 54.4274C551.075 52.5374 553.109 51.4394 556.421 51.4394ZM556.421 52.6454C554.009 52.6454 552.533 53.2934 552.533 54.4274C552.533 55.5794 554.009 56.2634 556.421 56.2634C558.833 56.2634 560.309 55.5794 560.309 54.4274C560.309 53.2934 558.833 52.6454 556.421 52.6454Z" fill="#717272"/>
<path d="M490.211 165.618C490.211 167.569 491.898 169.31 494.201 169.995L493.533 171.067C491.722 170.531 490.272 169.345 489.578 167.798C488.892 169.512 487.468 170.856 485.605 171.472L484.937 170.417C487.24 169.644 488.857 167.745 488.857 165.618V165.284H485.324V164.177H488.857V162.19H490.246V164.177H493.744V165.284H490.211V165.618ZM497.839 162.261V171.735H496.451V167.886H493.252V166.743H496.451V162.261H497.839ZM492.654 172.157C495.906 172.157 497.892 173.177 497.892 175.005C497.892 176.815 495.906 177.853 492.654 177.853C489.402 177.853 487.416 176.815 487.416 175.005C487.416 173.177 489.402 172.157 492.654 172.157ZM492.654 173.229C490.263 173.247 488.769 173.897 488.787 175.005C488.769 176.095 490.263 176.763 492.654 176.763C495.062 176.763 496.521 176.095 496.521 175.005C496.521 173.897 495.062 173.247 492.654 173.229ZM515.031 164.722V165.882H512.658V168.009H515.031V169.187H512.658V171.735H511.287V162.278H512.658V164.722H515.031ZM508.193 163.245V167.464H502.498V169.644C505.275 169.644 507.288 169.547 509.722 169.134L509.863 170.294C507.349 170.716 505.257 170.804 502.357 170.804H501.144V166.374H506.839V164.388H501.109V163.245H508.193ZM507.648 172.192C510.83 172.192 512.798 173.247 512.798 175.04C512.798 176.833 510.83 177.853 507.648 177.853C504.414 177.853 502.463 176.833 502.463 175.04C502.463 173.247 504.414 172.192 507.648 172.192ZM507.648 173.282C505.257 173.282 503.798 173.933 503.816 175.04C503.798 176.13 505.257 176.78 507.648 176.78C510.021 176.78 511.463 176.13 511.463 175.04C511.463 173.933 510.021 173.282 507.648 173.282ZM528.9 162.261V177.923H527.529V162.261H528.9ZM524.154 163.72V169.274H518.318V172.966C520.911 172.966 523.222 172.852 526.017 172.403L526.158 173.563C523.275 174.021 520.902 174.126 518.213 174.126H516.912V168.149H522.765V164.862H516.877V163.72H524.154ZM474.171 188.638V189.78H469.354V191.837H475.805V192.997H461.549V191.837H468.001V189.78H463.501V184.577H464.872V188.638H474.171ZM468.669 194.175C472.026 194.175 474.03 195.212 474.047 197.022C474.03 198.833 472.026 199.853 468.669 199.853C465.294 199.853 463.272 198.833 463.272 197.022C463.272 195.212 465.294 194.175 468.669 194.175ZM468.669 195.265C466.155 195.265 464.661 195.897 464.678 197.022C464.661 198.095 466.155 198.763 468.669 198.763C471.147 198.763 472.659 198.095 472.659 197.022C472.659 195.897 471.147 195.265 468.669 195.265ZM484.946 185.72C484.946 187.917 487.829 189.833 490.641 190.22L490.079 191.345C487.653 190.94 485.254 189.596 484.243 187.671C483.241 189.604 480.833 190.94 478.407 191.345L477.844 190.22C480.657 189.833 483.522 187.952 483.522 185.72V184.823H484.946V185.72ZM491.344 193.067V194.228H484.876V199.888H483.522V194.228H477.106V193.067H491.344ZM497.919 187.214C497.901 189.358 499.536 191.345 501.839 192.153L501.135 193.261C499.36 192.619 497.98 191.292 497.286 189.622C496.627 191.494 495.212 192.936 493.366 193.647L492.61 192.54C494.983 191.696 496.547 189.587 496.565 187.161V185.228H497.919V187.214ZM504.88 184.261V189.06H507.235V190.237H504.88V195.81H503.508V184.261H504.88ZM505.6 198.394V199.554H495.124V194.702H496.53V198.394H505.6ZM522.458 190.87V191.995H516.006V193.542H520.63V197.04H511.348V198.622H521.104V199.712H509.977V196.003H519.276V194.614H509.942V193.542H514.635V191.995H508.219V190.87H522.458ZM520.612 184.788V189.552H510.065V184.788H520.612ZM511.436 185.896V188.444H519.241V185.896H511.436ZM529.331 188.462C529.313 191.31 531.264 194.192 533.567 195.229L532.723 196.319C530.948 195.449 529.41 193.612 528.663 191.38C527.933 193.744 526.395 195.713 524.567 196.636L523.688 195.476C526.008 194.403 527.942 191.433 527.96 188.462V185.614H529.331V188.462ZM536.661 184.261V199.923H535.272V184.261H536.661ZM544.624 187.231C544.624 189.271 546.153 191.099 548.456 191.854L547.805 192.944C546.004 192.355 544.641 191.107 543.973 189.534C543.297 191.327 541.855 192.725 539.983 193.401L539.28 192.294C541.618 191.503 543.253 189.481 543.27 187.231V186.563H539.702V185.421H548.139V186.563H544.624V187.231ZM551.549 184.261V188.251H553.905V189.411H551.549V193.7H550.178V184.261H551.549ZM546.54 194.122C549.756 194.122 551.69 195.177 551.69 196.97C551.69 198.798 549.756 199.853 546.54 199.853C543.323 199.853 541.354 198.798 541.354 196.97C541.354 195.177 543.323 194.122 546.54 194.122ZM546.54 195.229C544.184 195.229 542.725 195.88 542.743 196.97C542.725 198.095 544.184 198.745 546.54 198.745C548.913 198.745 550.354 198.095 550.354 196.97C550.354 195.88 548.913 195.229 546.54 195.229Z" fill="#717272"/>
<path d="M698.686 252.192H699.91V252.894C699.91 255.72 698.11 258.096 695.392 259.014L694.672 257.844C697.066 257.07 698.686 255.09 698.686 252.894V252.192ZM698.956 252.192H700.18V252.894C700.18 254.91 701.854 256.728 704.248 257.43L703.564 258.6C700.828 257.754 698.956 255.558 698.956 252.894V252.192ZM695.086 251.382H703.762V252.588H695.086V251.382ZM698.686 249.348H700.18V251.814H698.686V249.348ZM703.276 254.046H706.948V255.288H703.276V254.046ZM706.516 249.42H708.01V259.266H706.516V249.42ZM702.664 259.698C706.03 259.698 708.082 260.796 708.082 262.686C708.082 264.558 706.03 265.656 702.664 265.656C699.28 265.656 697.228 264.558 697.228 262.686C697.228 260.796 699.28 259.698 702.664 259.698ZM702.664 260.868C700.198 260.868 698.722 261.534 698.722 262.686C698.722 263.82 700.198 264.486 702.664 264.486C705.112 264.486 706.606 263.82 706.606 262.686C706.606 261.534 705.112 260.868 702.664 260.868ZM723.363 251.958H726.225V253.2H723.363V251.958ZM723.363 255.378H726.225V256.62H723.363V255.378ZM722.319 249.42H723.813V259.266H722.319V249.42ZM711.897 257.088H713.175C716.127 257.088 718.233 256.998 720.771 256.548L720.897 257.79C718.323 258.222 716.181 258.33 713.175 258.33H711.897V257.088ZM711.861 250.428H719.187V254.856H713.355V257.88H711.897V253.686H717.711V251.652H711.861V250.428ZM718.611 259.752C721.941 259.752 723.957 260.832 723.957 262.704C723.957 264.594 721.941 265.674 718.611 265.674C715.299 265.674 713.265 264.594 713.265 262.704C713.265 260.832 715.299 259.752 718.611 259.752ZM718.611 260.922C716.181 260.922 714.723 261.57 714.723 262.704C714.723 263.856 716.181 264.504 718.611 264.504C721.041 264.504 722.517 263.856 722.517 262.704C722.517 261.57 721.041 260.922 718.611 260.922ZM739.597 249.402H741.091V265.71H739.597V249.402ZM728.689 260.544H730.039C732.757 260.544 735.187 260.436 738.067 259.968L738.229 261.192C735.277 261.678 732.829 261.786 730.039 261.786H728.689V260.544ZM728.653 250.932H736.177V256.746H730.183V261.012H728.689V255.522H734.665V252.156H728.653V250.932ZM694.979 275.902H699.083V277.126H694.979V275.902ZM698.237 271.438H699.731V283.354H698.237V271.438ZM689.345 286.108H700.181V287.332H689.345V286.108ZM689.345 282.31H690.839V286.738H689.345V282.31ZM690.497 273.454H691.721V274.768C691.721 277.72 689.885 280.276 687.167 281.284L686.393 280.096C688.823 279.232 690.497 277.072 690.497 274.768V273.454ZM690.785 273.454H691.991V274.75C691.991 276.856 693.575 278.908 695.933 279.736L695.177 280.906C692.531 279.952 690.785 277.504 690.785 274.75V273.454ZM686.861 272.752H695.555V273.958H686.861V272.752ZM702.898 280.042H717.604V281.248H702.898V280.042ZM709.504 277.936H710.98V280.546H709.504V277.936ZM704.842 277.27H715.876V278.44H704.842V277.27ZM704.842 271.888H715.804V273.058H706.318V277.9H704.842V271.888ZM705.886 274.552H715.372V275.704H705.886V274.552ZM710.242 282.454C713.788 282.454 715.822 283.354 715.822 285.064C715.822 286.756 713.788 287.656 710.242 287.656C706.696 287.656 704.662 286.756 704.662 285.064C704.662 283.354 706.696 282.454 710.242 282.454ZM710.242 283.588C707.632 283.588 706.174 284.11 706.174 285.064C706.174 286.036 707.632 286.54 710.242 286.54C712.852 286.54 714.31 286.036 714.31 285.064C714.31 284.11 712.852 283.588 710.242 283.588ZM723.758 272.824H724.982V275.74C724.982 279.484 722.966 282.958 720.302 284.308L719.384 283.084C721.796 281.932 723.758 278.818 723.758 275.74V272.824ZM724.01 272.824H725.234V275.74C725.234 278.71 727.178 281.698 729.59 282.814L728.69 284.002C726.044 282.706 724.01 279.358 724.01 275.74V272.824ZM731.282 271.402H732.776V287.71H731.282V271.402ZM740.029 273.166H741.253V274.48C741.253 277.468 739.453 279.97 736.717 280.96L735.961 279.772C738.409 278.908 740.029 276.802 740.029 274.48V273.166ZM740.299 273.166H741.523V274.462C741.523 276.586 743.071 278.494 745.465 279.286L744.745 280.456C742.027 279.556 740.299 277.234 740.299 274.462V273.166ZM736.411 272.626H745.105V273.85H736.411V272.626ZM747.157 271.42H748.651V281.23H747.157V271.42ZM748.237 275.542H751.063V276.802H748.237V275.542ZM743.467 281.662C746.779 281.662 748.813 282.76 748.813 284.65C748.813 286.558 746.779 287.656 743.467 287.656C740.155 287.656 738.121 286.558 738.121 284.65C738.121 282.76 740.155 281.662 743.467 281.662ZM743.467 282.868C741.055 282.868 739.579 283.516 739.579 284.65C739.579 285.802 741.055 286.486 743.467 286.486C745.879 286.486 747.355 285.802 747.355 284.65C747.355 283.516 745.879 282.868 743.467 282.868Z" fill="#717272"/>
<path d="M342.116 212.392V221.778H340.727V219.669H336.579V218.526H340.727V216.417H336.737C335.709 218.931 333.292 220.75 329.952 221.743L329.372 220.653C333.151 219.528 335.498 217.419 335.788 214.712H330.163V213.552H337.282C337.282 214.167 337.212 214.756 337.088 215.31H340.727V212.392H342.116ZM337.001 221.937C340.165 221.937 342.204 223.062 342.204 224.925C342.204 226.806 340.165 227.931 337.001 227.931C333.801 227.931 331.78 226.806 331.78 224.925C331.78 223.062 333.801 221.937 337.001 221.937ZM337.001 223.044C334.645 223.026 333.133 223.747 333.133 224.925C333.133 226.103 334.645 226.806 337.001 226.806C339.321 226.806 340.815 226.103 340.833 224.925C340.815 223.747 339.321 223.026 337.001 223.044ZM358.973 220.108V221.216H344.717V220.108H351.169V218.28H346.528V213.112H357.198V214.22H347.881V217.155H357.303V218.28H352.504V220.108H358.973ZM351.837 222.358C355.194 222.358 357.198 223.378 357.215 225.171C357.198 226.981 355.194 227.983 351.837 228.001C348.462 227.983 346.44 226.981 346.44 225.171C346.44 223.378 348.462 222.358 351.837 222.358ZM351.837 223.448C349.323 223.448 347.829 224.099 347.846 225.171C347.829 226.261 349.323 226.894 351.837 226.894C354.315 226.894 355.827 226.261 355.827 225.171C355.827 224.099 354.315 223.448 351.837 223.448ZM368.94 213.358V214.202C368.922 215.187 368.922 216.593 368.518 218.438L367.147 218.315C367.507 216.663 367.551 215.459 367.551 214.519H361.153V213.358H368.94ZM364.915 216.751V219.81C366.655 219.757 368.439 219.634 370.065 219.423L370.153 220.442C366.883 220.97 363.139 221.058 360.327 221.058L360.186 219.897C361.206 219.897 362.348 219.889 363.544 219.862V216.751H364.915ZM372.526 212.374V216.663H374.811V217.823H372.526V222.147H371.12V212.374H372.526ZM367.446 222.341C370.68 222.341 372.649 223.378 372.649 225.118C372.649 226.929 370.68 227.948 367.446 227.948C364.212 227.948 362.243 226.929 362.243 225.118C362.243 223.378 364.212 222.341 367.446 222.341ZM367.446 223.413C365.09 223.413 363.614 224.063 363.631 225.118C363.614 226.226 365.09 226.858 367.446 226.858C369.801 226.858 371.26 226.226 371.26 225.118C371.26 224.063 369.801 223.413 367.446 223.413ZM381.21 214.835C381.192 217.067 382.774 219.036 385.077 219.81L384.303 220.882C382.581 220.231 381.227 218.966 380.559 217.313C379.882 219.186 378.45 220.645 376.569 221.356L375.813 220.231C378.221 219.388 379.821 217.313 379.838 214.888V213.271H381.21V214.835ZM388.786 212.374V221.638H387.397V216.874H383.917V215.731H387.397V212.374H388.786ZM383.6 222.095C386.852 222.095 388.838 223.167 388.838 225.048C388.838 226.911 386.852 227.966 383.6 227.966C380.348 227.966 378.362 226.911 378.362 225.048C378.362 223.167 380.348 222.095 383.6 222.095ZM383.6 223.185C381.21 223.185 379.715 223.888 379.733 225.048C379.715 226.173 381.21 226.858 383.6 226.858C385.991 226.858 387.467 226.173 387.467 225.048C387.467 223.888 385.991 223.185 383.6 223.185ZM349.938 236.905C349.938 239.032 351.555 240.983 353.823 241.757L353.067 242.847C351.336 242.214 349.973 240.922 349.288 239.296C348.62 241.133 347.231 242.583 345.403 243.286L344.665 242.179C347.003 241.3 348.567 239.208 348.585 236.8V235.183H349.938V236.905ZM356.934 234.374V238.452H359.29V239.612H356.934V243.884H355.563V234.374H356.934ZM351.924 244.288C355.141 244.288 357.075 245.325 357.075 247.118C357.075 248.946 355.141 249.966 351.924 249.966C348.708 249.966 346.739 248.946 346.739 247.118C346.739 245.325 348.708 244.288 351.924 244.288ZM351.924 245.396C349.569 245.396 348.11 246.046 348.128 247.118C348.11 248.226 349.569 248.858 351.924 248.876C354.297 248.858 355.739 248.226 355.739 247.118C355.739 246.046 354.297 245.396 351.924 245.396ZM372.368 234.374V240.737H374.899V241.897H372.368V250.001H370.997V234.374H372.368ZM368.325 236.062C368.325 240.491 366.251 244.517 361.153 247.03L360.379 245.94C364.422 243.928 366.62 240.922 366.936 237.222H361.1V236.062H368.325Z" fill="#717272"/>
<path d="M348.881 364.336V373.723H347.493V371.613H343.344V370.471H347.493V368.361H343.503C342.474 370.875 340.057 372.694 336.717 373.688L336.137 372.598C339.917 371.473 342.263 369.363 342.553 366.656H336.928V365.496H344.047C344.047 366.111 343.977 366.7 343.854 367.254H347.493V364.336H348.881ZM343.766 373.881C346.93 373.881 348.969 375.006 348.969 376.869C348.969 378.75 346.93 379.875 343.766 379.875C340.567 379.875 338.546 378.75 338.546 376.869C338.546 375.006 340.567 373.881 343.766 373.881ZM343.766 374.988C341.411 374.971 339.899 375.691 339.899 376.869C339.899 378.047 341.411 378.75 343.766 378.75C346.087 378.75 347.581 378.047 347.598 376.869C347.581 375.691 346.087 374.971 343.766 374.988ZM365.739 372.053V373.16H351.483V372.053H357.934V370.225H353.294V365.057H363.963V366.164H354.647V369.1H364.069V370.225H359.27V372.053H365.739ZM358.602 374.303C361.96 374.303 363.963 375.322 363.981 377.115C363.963 378.926 361.96 379.928 358.602 379.945C355.227 379.928 353.206 378.926 353.206 377.115C353.206 375.322 355.227 374.303 358.602 374.303ZM358.602 375.393C356.088 375.393 354.594 376.043 354.612 377.115C354.594 378.205 356.088 378.838 358.602 378.838C361.081 378.838 362.592 378.205 362.592 377.115C362.592 376.043 361.081 375.393 358.602 375.393ZM372.594 368.52C372.577 371.367 374.528 374.25 376.831 375.287L375.987 376.377C374.212 375.507 372.673 373.67 371.926 371.438C371.197 373.802 369.659 375.771 367.831 376.693L366.952 375.533C369.272 374.461 371.206 371.49 371.223 368.52V365.672H372.594V368.52ZM379.924 364.318V379.98H378.536V364.318H379.924ZM387.887 367.289C387.887 369.328 389.417 371.156 391.719 371.912L391.069 373.002C389.267 372.413 387.905 371.165 387.237 369.592C386.56 371.385 385.119 372.782 383.247 373.459L382.544 372.352C384.881 371.561 386.516 369.539 386.534 367.289V366.621H382.965V365.479H391.403V366.621H387.887V367.289ZM394.813 364.318V368.309H397.169V369.469H394.813V373.758H393.442V364.318H394.813ZM389.803 374.18C393.02 374.18 394.954 375.234 394.954 377.027C394.954 378.855 393.02 379.91 389.803 379.91C386.587 379.91 384.618 378.855 384.618 377.027C384.618 375.234 386.587 374.18 389.803 374.18ZM389.803 375.287C387.448 375.287 385.989 375.938 386.006 377.027C385.989 378.152 387.448 378.803 389.803 378.803C392.176 378.803 393.618 378.152 393.618 377.027C393.618 375.938 392.176 375.287 389.803 375.287Z" fill="#717272"/>
<path d="M176.99 236.563C176.99 239.394 178.8 242.241 181.068 243.278L180.242 244.403C178.466 243.489 176.999 241.617 176.304 239.394C175.61 241.731 174.142 243.735 172.367 244.685L171.47 243.577C173.755 242.452 175.584 239.446 175.584 236.563V233.716H176.99V236.563ZM184.443 232.362V248.024H183.072V238.831H179.363V237.706H183.072V232.362H184.443ZM194.164 232.556C197.644 232.556 199.683 233.522 199.683 235.263C199.683 237.021 197.644 237.97 194.164 237.987C190.683 237.97 188.627 237.021 188.627 235.263C188.627 233.522 190.683 232.556 194.164 232.556ZM194.164 233.61C191.562 233.628 190.05 234.226 190.068 235.263C190.05 236.335 191.562 236.915 194.164 236.933C196.748 236.915 198.277 236.335 198.277 235.263C198.277 234.226 196.748 233.628 194.164 233.61ZM201.283 239.024V240.132H194.832V241.608H199.455V245.106H190.173V246.724H199.929V247.813H188.802V244.087H198.101V242.663H188.767V241.608H193.461V240.132H187.045V239.024H201.283ZM217.138 234.788V235.913H214.818V238.11H217.138V239.288H214.818V241.661H213.447V232.362H214.818V234.788H217.138ZM214.818 242.382V247.989H213.447V243.524H204.588V242.382H214.818ZM206.996 233.312C209.369 233.294 211.091 234.823 211.109 236.985C211.091 239.183 209.369 240.694 206.996 240.694C204.623 240.694 202.882 239.183 202.9 236.985C202.882 234.823 204.623 233.294 206.996 233.312ZM206.996 234.489C205.414 234.489 204.236 235.509 204.254 236.985C204.236 238.479 205.414 239.517 206.996 239.499C208.595 239.517 209.755 238.479 209.755 236.985C209.755 235.509 208.595 234.489 206.996 234.489ZM225.576 233.259V237.636H220.197V240.026C223.132 240.026 224.644 239.965 226.49 239.622L226.63 240.765C224.679 241.116 223.097 241.169 219.933 241.151H218.826V236.528H224.205V234.401H218.791V233.259H225.576ZM231.113 232.38V242.048H229.724V239.165H226.63V238.005H229.724V235.966H226.63V234.841H229.724V232.38H231.113ZM225.945 242.312C229.197 242.312 231.166 243.384 231.166 245.212C231.166 247.04 229.197 248.077 225.945 248.077C222.675 248.077 220.689 247.04 220.689 245.212C220.689 243.384 222.675 242.312 225.945 242.312ZM225.945 243.401C223.537 243.401 222.078 244.069 222.095 245.212C222.078 246.337 223.537 246.987 225.945 246.987C228.336 246.987 229.812 246.337 229.812 245.212C229.812 244.069 228.336 243.401 225.945 243.401ZM239.269 236.563C239.252 239.411 241.203 242.294 243.505 243.331L242.662 244.421C240.886 243.551 239.348 241.714 238.601 239.481C237.872 241.846 236.334 243.814 234.505 244.737L233.627 243.577C235.947 242.505 237.88 239.534 237.898 236.563V233.716H239.269V236.563ZM246.599 232.362V248.024H245.211V232.362H246.599Z" fill="#717272"/>
<path d="M498.158 281.357C498.127 281.272 498.112 281.178 498.112 281.085L497.956 239.987C497.948 237.146 495.413 234.967 492.598 235.372L460.164 240.072C457.918 240.399 456.226 242.282 456.156 244.547L455.313 269.808C455.29 270.501 455.423 271.186 455.696 271.824L474.279 314.595L476.003 318.556C477.095 321.062 475.808 323.957 473.219 324.844L469.125 326.245L424.806 341.366C422.326 342.214 421.023 344.923 421.912 347.382L428.182 364.659C429.064 367.079 431.731 368.332 434.164 367.468L479.957 351.195L484.675 349.514C486.999 348.689 489.565 349.802 490.547 352.059C491.623 354.542 490.376 357.421 487.818 358.324L483.692 359.795L437.4 376.246C434.952 377.118 433.68 379.811 434.569 382.246L441.214 400.558C442.095 402.986 444.778 404.239 447.211 403.368L495.117 386.099L499.812 384.41C502.144 383.569 504.717 384.682 505.707 386.947L507.688 391.515L523.332 427.524C524.33 429.819 526.966 430.925 529.314 430.03L549.2 422.419C549.605 422.263 549.808 421.812 549.66 421.407L498.166 281.349L498.158 281.357Z" fill="#214AEE"/>
<path d="M595.562 404.683C602.081 402.185 605.287 394.839 602.682 388.38L546.922 250.299C546.267 248.68 545.963 246.945 546.026 245.201L546.119 242.47C546.392 234.695 539.545 228.571 531.832 229.691L527.426 230.329C521.265 231.224 516.703 236.509 516.727 242.719L516.859 277.731C516.859 277.825 516.875 277.918 516.906 278.004L563.229 403.485C565.631 409.999 572.907 413.298 579.411 410.831L595.57 404.691L595.562 404.683Z" fill="#214AEE"/>
<path d="M605.041 261.885H456.097C444.018 261.885 434.223 271.659 434.223 283.714C434.223 295.769 444.018 305.543 456.097 305.543H524.101L526.892 314.757L530.566 326.89L534.239 314.757L537.031 305.543H605.034C617.113 305.543 626.908 295.769 626.908 283.714C626.908 271.659 617.113 261.885 605.034 261.885H605.041Z" fill="white" stroke="#214AEE" stroke-width="5" stroke-miterlimit="10"/>
<path d="M469.417 276.084V278.428H465.105C465.128 280.619 466.745 282.846 470.167 283.725L468.785 286.021C466.359 285.412 464.648 284.064 463.675 282.318C462.749 284.311 461.038 285.869 458.519 286.584L457.113 284.264C460.535 283.291 462.105 280.854 462.128 278.428H457.839V276.084H462.128V273.764H465.152V276.084H469.417ZM475.23 273.857V286.748H472.253V281.967H468.785V279.576H472.253V273.857H475.23ZM467.941 287.1C472.488 287.123 475.277 288.553 475.3 291.107C475.277 293.686 472.488 295.186 467.941 295.186C463.417 295.186 460.605 293.686 460.605 291.107C460.605 288.553 463.417 287.123 467.941 287.1ZM467.941 289.396C465.105 289.396 463.581 289.959 463.581 291.107C463.581 292.279 465.105 292.912 467.941 292.912C470.824 292.912 472.324 292.279 472.324 291.107C472.324 289.959 470.824 289.396 467.941 289.396ZM497.8 276.717V279.201H494.917V281.24H497.8V283.701H494.917V286.748H491.917V273.881H494.917V276.717H497.8ZM488.542 275.146V281.498H481.745V283.373C485.273 283.35 487.663 283.209 490.37 282.74L490.699 285.131C487.628 285.693 484.886 285.811 480.574 285.811H478.769V279.248H485.636V277.49H478.745V275.146H488.542ZM487.886 287.076C492.316 287.076 495.128 288.623 495.128 291.178C495.128 293.709 492.316 295.162 487.886 295.162C483.363 295.162 480.574 293.709 480.574 291.178C480.574 288.623 483.363 287.076 487.886 287.076ZM487.886 289.396C485.05 289.396 483.503 289.982 483.527 291.178C483.503 292.326 485.05 292.936 487.886 292.936C490.699 292.936 492.175 292.326 492.175 291.178C492.175 289.982 490.699 289.396 487.886 289.396ZM516.62 273.857V295.232H513.644V273.857H516.62ZM510.011 275.639V283.865H502.98V287.779C506.226 287.768 508.992 287.58 512.12 287.076L512.378 289.49C508.863 290.1 505.699 290.24 501.808 290.24H499.886V281.498H506.964V278.053H499.863V275.639H510.011ZM530.66 281.498V284.053H538.933V286.467H519.48V284.053H527.706V281.498H530.66ZM529.183 287.639C533.824 287.639 536.589 288.975 536.613 291.412C536.589 293.85 533.824 295.186 529.183 295.186C524.495 295.186 521.706 293.85 521.706 291.412C521.706 288.975 524.495 287.639 529.183 287.639ZM529.183 289.912C526.206 289.912 524.73 290.404 524.753 291.412C524.73 292.467 526.206 292.959 529.183 292.959C532.089 292.959 533.589 292.467 533.613 291.412C533.589 290.404 532.089 289.912 529.183 289.912ZM537.175 274.771V277.115H531.386C531.913 278.58 534.093 280.01 538.089 280.373L537.035 282.717C533.015 282.318 530.32 280.83 529.183 278.756C528.046 280.818 525.386 282.318 521.378 282.717L520.324 280.373C524.296 280.01 526.488 278.604 527.027 277.115H521.261V274.771H537.175ZM557.144 273.857V278.99H560.027V281.475H557.144V286.35H554.144V273.857H557.144ZM546.152 287.17V288.787H554.144V287.17H557.144V294.951H543.175V287.17H546.152ZM546.152 292.607H554.144V291.084H546.152V292.607ZM552.878 275.732V278.076H540.222V275.732H545.074V273.717H548.05V275.732H552.878ZM546.55 278.686C549.644 278.686 551.8 280.186 551.8 282.459C551.8 284.732 549.644 286.232 546.55 286.232C543.41 286.232 541.253 284.732 541.253 282.459C541.253 280.186 543.41 278.686 546.55 278.686ZM546.55 280.889C545.12 280.865 544.16 281.451 544.183 282.459C544.16 283.49 545.12 284.053 546.55 284.053C547.98 284.053 548.964 283.49 548.964 282.459C548.964 281.451 547.98 280.865 546.55 280.889ZM569.261 278.686C569.261 282.6 571.042 286.537 574.652 288.061L572.894 290.451C570.456 289.35 568.769 287.229 567.808 284.592C566.835 287.463 565.089 289.783 562.488 290.967L560.683 288.482C564.41 286.912 566.214 282.834 566.238 278.686V275.498H569.261V278.686ZM578.824 273.857V295.232H575.8V273.857H578.824ZM593.824 275.287V277.678H589.581C589.605 280.162 591.093 282.564 594.503 283.561L593.074 285.904C590.718 285.189 589.089 283.76 588.152 281.92C587.203 284.076 585.468 285.787 582.902 286.631L581.378 284.264C584.917 283.15 586.511 280.385 586.558 277.678H582.199V275.287H593.824ZM598.628 273.857V278.803H601.511V281.24H598.628V286.514H595.628V273.857H598.628ZM591.644 286.936C596.074 286.912 598.839 288.436 598.839 291.037C598.839 293.639 596.074 295.186 591.644 295.186C587.12 295.186 584.331 293.639 584.331 291.037C584.331 288.436 587.12 286.912 591.644 286.936ZM591.644 289.256C588.831 289.256 587.308 289.842 587.331 291.037C587.308 292.256 588.831 292.865 591.644 292.865C594.41 292.865 595.886 292.256 595.886 291.037C595.886 289.842 594.41 289.256 591.644 289.256Z" fill="#214AEE"/>
</g>
</svg>
